<?xml version="1.0" encoding="UTF-8" standalone="no"?><!-- Generator: Gravit.io --><svg xmlns="http://www.w3.org/2000/svg" xmlns:xlink="http://www.w3.org/1999/xlink" style="isolation:isolate" viewBox="0 0 1576 1576" width="1576pt" height="1576pt"><defs><clipPath id="_clipPath_thdrmwgOBEQTysBLw57FdjOJfISl9KWH"><rect width="1576" height="1576"/></clipPath></defs><g clip-path="url(#_clipPath_thdrmwgOBEQTysBLw57FdjOJfISl9KWH)"><g><path d=" M 755.5 193 C 759.482 191.796 766.376 189.914 769.5 194 L 769.5 194 L 772.5 193 L 778.5 194 Q 780.5 191 787.5 193 Q 815.075 195.425 827 213.5 Q 837.37 224.63 835 248.5 Q 831.255 268.255 817.5 278 Q 797.571 294.071 754.5 287 L 754.5 286 L 758 283.5 L 760 274.5 Q 756.5 272 759 263.5 Q 763.75 259.75 760 247.5 L 760 199.5 L 756.5 194 L 755.5 193 Z " fill="rgb(2,2,2)"/><path d=" M 770.5 195 C 781.828 194.211 794.049 194.896 804.223 200.464 C 828.212 213.594 832.223 252.202 814.126 271.814 C 802.508 284.405 785.868 286.618 769.5 285 L 769.5 285 L 769 197.5 L 770.5 195 Z " fill="rgb(253,253,253)"/><path d=" M 704.5 198 C 706.109 197.678 708.365 197.596 709 199.5 L 709 199.5 L 713 210.5 L 707.5 206 C 702.502 201.357 694.859 201.25 688.5 202 L 688.5 202 L 666 206.5 Q 665.426 232.574 673.5 250 Q 689.35 249.85 698 242.5 L 699.5 239 C 702.312 242.426 702.441 247.307 702 251.5 L 702 251.5 L 699.5 250 C 696.637 247.28 692.117 247.45 688.5 248 L 688.5 248 L 673 251.5 L 678.5 283 Q 676.923 292.577 681.5 296 Q 709.458 296.458 722 281.5 L 724.5 276 L 725 280.5 L 724 283.5 L 723.5 290 L 667.5 300 L 670 296.5 L 671 290.5 L 668 274.5 L 661.5 235 C 661.909 225.551 660.543 214.977 653.5 208 L 653.5 208 L 652 207.5 L 704.5 198 Z " fill="rgb(2,2,2)"/><path d=" M 817.5 203 L 825.5 212 L 817.5 203 Z  M 707.5 206 L 711.5 211 L 707.5 206 Z " fill-rule="evenodd" fill="rgb(127,127,127)"/><path d=" M 938.5 209 L 957 214.5 L 951 218.5 L 939 255.5 C 952.829 263.705 968.635 268.02 984.5 270 L 984.5 270 L 992.5 244 C 995.383 239.469 995.517 233.671 995 228.5 L 995 228.5 L 993.5 226 L 992 225.5 L 993.5 225 L 1010 230.5 L 1006 233.5 Q 995.631 257.131 989.5 285 Q 981.18 296.18 982 316.5 L 985 320.5 L 983.5 320 L 967 315.5 L 967.5 314 L 972 310.5 L 984 271.5 C 969.228 265.789 953.97 261.369 938.5 258 L 938.5 258 L 930.5 285 C 927.506 289.852 927.419 296.011 928 301.5 L 928 301.5 L 929.5 304 L 913 299.5 L 913.5 298 L 919 293.5 L 935.5 238 C 940.7 230.716 941.503 221.157 941 212.5 L 941 212.5 L 938.5 209 Z  M 575.5 228 L 574 230.5 L 573 237.5 L 599.5 317 C 612.703 316.101 626.232 311.965 635 301.5 L 635 301.5 L 639.5 290 L 641 305.5 L 587.5 323 L 588 321.5 L 589 312.5 C 581.783 299.758 576.996 285.758 573.976 271.461 C 571.217 258.396 570.079 245.217 560.5 235 L 560.5 235 L 557 234.5 L 575.5 228 Z " fill-rule="evenodd" fill="rgb(2,2,2)"/><path d=" M 759.5 237 L 760 262.5 L 759 262.5 L 759.5 237 Z  M 768.5 262 L 769.5 285 L 785 285.5 L 769.5 286 C 766.788 284.644 767.408 280.867 768 278.5 L 768 278.5 L 768.5 262 Z " fill-rule="evenodd" fill="rgb(127,127,127)"/><path d=" M 1080.5 263 L 1082 263.5 L 1073 356.5 C 1073 359.667 1073.97 362.985 1077 364.5 L 1077 364.5 L 1075.5 364 L 1058 355.5 L 1058.5 354 C 1063.273 354.477 1064.055 351.063 1065.056 347.181 C 1067.405 338.078 1068.283 328.893 1068 319.5 L 1068 319.5 L 1037.5 305 L 1018 323.5 C 1015.218 325.499 1015.468 329.532 1016 332.5 L 1016 332.5 L 1018 335.5 L 1016.5 335 L 1003 328.5 C 1014.095 326.734 1024.19 321.224 1029.5 311 L 1029.5 311 L 1080.5 263 Z " fill="rgb(2,2,2)"/><line x1="1077.5" y1="265" x2="1071.5" y2="272"/><path d=" M 484.5 267 L 485 268.5 C 482.423 270.14 483.334 274.12 484 276.5 L 484 276.5 L 521.5 351 C 538.015 347.09 556.435 337.837 557.5 319 L 557.5 319 L 561 333.5 L 510.5 359 L 511 357.5 L 512 352.5 L 475.5 279 C 473.916 276.396 470.881 275.543 468 275.5 L 468 275.5 L 484.5 267 Z " fill="rgb(2,2,2)"/><path d=" M 824.5 271 L 819.5 277 L 824.5 271 Z  M 1070.5 274 L 1072 274.5 L 1063.5 282 L 1070.5 274 Z " fill-rule="evenodd" fill="rgb(127,127,127)"/><path d=" M 1070.5 275 L 1072 275.5 C 1069.664 283.797 1068.839 292.317 1068.527 300.902 C 1068.339 306.079 1070.315 312.661 1066.5 317 L 1066.5 317 L 1040 303.5 L 1070.5 275 Z " fill="rgb(253,253,253)"/><path d=" M 1063.5 278 L 1057.5 285 L 1063.5 278 Z  M 721.5 281 L 716.5 287 L 721.5 281 Z  M 768.5 287 L 795 287.5 L 768.5 288 L 768.5 287 Z  M 1055.5 288 L 1049.5 295 L 1055.5 288 Z  M 1049.5 291 L 1043.5 298 L 1049.5 291 Z  M 669.5 296 L 668.5 299 L 671 299.5 L 668.5 300 L 666 299.5 L 669.5 296 Z " fill-rule="evenodd" fill="rgb(127,127,127)"/><path d=" M 431.5 298 L 432 299.5 L 431 303.5 C 445.062 328.448 460.9 352.404 478.5 375 L 478.5 375 L 483 376.5 L 467.5 387 L 468 385.5 L 469 380.5 C 454.965 355.536 439.127 331.576 421.5 309 L 421.5 309 L 417 307.5 L 431.5 298 Z  M 1148.5 301 L 1164 311.5 C 1159.002 311.445 1154.377 313.356 1153 318.5 L 1153 318.5 L 1124 362.5 C 1115.607 368.13 1111.912 377.766 1111 387.5 L 1111 387.5 L 1111.5 389 L 1096 378.5 C 1100.998 378.555 1105.623 376.644 1107 371.5 L 1107 371.5 L 1136.5 328 L 1146 313.5 C 1149.478 311.076 1149.521 306.266 1149 302.5 L 1149 302.5 L 1148.5 301 Z " fill-rule="evenodd" fill="rgb(2,2,2)"/><path d=" M 1036.5 303 L 1029.5 311 L 1036.5 303 Z  M 488.5 305 L 496 318.5 L 494 317.5 L 488.5 305 Z  M 1037.5 305 L 1033.5 310 L 1037.5 305 Z  M 1022.5 316 L 1016.5 323 L 1022.5 316 Z  M 1025.5 316 L 1018.5 324 L 1025.5 316 Z  M 1065.5 316 L 1065.5 318 L 1068 319.5 L 1067.5 323 L 1066.5 319 L 1063 317.5 L 1065.5 316 Z  M 496.5 321 L 504 334.5 L 502 333.5 L 496.5 321 Z  M 552.5 333 L 547.5 339 L 552.5 333 Z " fill-rule="evenodd" fill="rgb(127,127,127)"/><path d=" M 379.5 334 L 390 341.5 L 387.5 342 C 385.567 338.963 380.544 340.598 377.842 341.467 C 370.317 343.885 363.618 347.954 359 354.5 L 359 354.5 L 415.5 419 L 421.5 421 L 423 420.5 L 409.5 433 C 408.576 421.711 403.47 411.372 392.5 407 L 392.5 407 L 352.5 361 L 340 371.5 C 336.971 375.161 335.533 379.843 335 384.5 L 335 384.5 L 336 386.5 L 336 388.5 L 335.5 391 L 329 378.5 L 379.5 334 Z " fill="rgb(2,2,2)"/><path d=" M 504.5 337 L 509 344.5 L 507 343.5 L 504.5 337 Z  M 545.5 339 L 545.5 341 L 548.5 340 L 548.5 341 L 545.5 342 C 543.703 341.101 543.703 339.899 545.5 339 L 545.5 339 Z " fill-rule="evenodd" fill="rgb(127,127,127)"/><path d=" M 1202.5 339 L 1232 366.5 C 1234.782 368.878 1236.714 372.065 1237.852 375.523 C 1242.452 389.507 1237.015 406.495 1222.487 412.112 C 1217.137 414.181 1211.055 413.845 1205.5 413 L 1205.5 413 L 1195.5 409 L 1189 446.5 L 1191 453.5 L 1189.5 454 C 1183.048 453.477 1180.581 448.499 1181 442.5 L 1181 442.5 L 1188 402.5 L 1179 394.5 C 1178.14 387.618 1170.554 392.647 1167.992 394.679 C 1160.147 400.901 1155.336 409.881 1153 419.5 L 1153 419.5 L 1153.5 421 L 1139 408.5 L 1140.5 408 L 1142.5 409 C 1149.11 407.211 1154.42 402.909 1157 396.5 L 1157 396.5 L 1187.5 362 C 1196.49 357.515 1201.153 348.669 1202.5 339 L 1202.5 339 Z " fill="rgb(2,2,2)"/><path d=" M 1204.5 340 L 1208.5 345 L 1204.5 340 Z  M 541.5 341 L 543 341.5 L 536.5 345 L 537.5 343 L 541.5 341 Z  M 1199.5 348 L 1195.5 353 L 1199.5 348 Z  M 1214.5 349 L 1218.5 354 L 1214.5 349 Z " fill-rule="evenodd" fill="rgb(127,127,127)"/><path d=" M 1211.5 350 L 1229 366.5 C 1234.212 373.03 1233.616 381.667 1230.752 388.94 C 1228.15 395.547 1221.221 403.648 1214.307 406.057 C 1199.511 411.212 1184.178 401.494 1176 389.5 L 1176 389.5 L 1211.5 350 Z " fill="rgb(253,253,253)"/><path d=" M 361.5 352 L 360 354.5 L 363 358.5 L 359 355.5 L 361.5 352 Z  M 1219.5 356 L 1227.5 365 L 1219.5 356 Z  M 1191.5 357 L 1187.5 362 L 1191.5 357 Z  M 1224.5 358 L 1229.5 364 L 1224.5 358 Z  M 1202.5 359 L 1198.5 364 L 1202.5 359 Z  M 345.5 366 L 340.5 372 L 345.5 366 Z  M 1183.5 366 L 1178.5 372 L 1183.5 366 Z  M 1193.5 369 L 1189.5 374 L 1193.5 369 Z  M 1174.5 376 L 1170.5 381 L 1174.5 376 Z  M 1185.5 378 L 1181.5 383 L 1185.5 378 Z  M 1165.5 386 L 1161.5 391 L 1165.5 386 Z  M 1176.5 390 Q 1174.667 393 1179.5 396 Q 1172 393 1176.5 390 Z  M 1182.5 395 L 1188 402.5 L 1187.5 405 L 1184 399.5 C 1186.426 397.743 1184.488 395.971 1182.5 395 L 1182.5 395 Z  M 1156.5 396 L 1152.5 401 L 1156.5 396 Z  M 1168.5 397 L 1164.5 402 L 1168.5 397 Z  M 386.5 400 L 390.5 405 L 386.5 400 Z  M 401.5 403 L 405.5 408 L 401.5 403 Z  M 1233.5 403 L 1228.5 409 L 1233.5 403 Z  M 1142.5 411 L 1146.5 416 L 1142.5 411 Z " fill-rule="evenodd" fill="rgb(127,127,127)"/><path d=" M 297.5 413 L 311 425.5 L 309.5 426 C 298.995 418.423 283.61 428.2 276.087 435.212 C 273.641 437.493 272.116 440.226 271.367 443.492 C 270.541 447.09 270.603 450.852 271 454.5 L 271 454.5 L 276.5 463 C 280.637 466.994 287.223 466.788 292.5 466 L 292.5 466 L 319 454.5 C 330.837 446.689 352.177 447.516 358.948 461.74 C 361.153 466.372 361.844 472.426 360.595 477.408 C 358.582 485.439 355.022 492.422 348.783 497.97 C 346.506 499.994 343.012 500.893 340.449 502.449 C 336.894 504.608 333.682 507.322 331 510.5 L 331 510.5 L 329.5 517 L 311 501.5 L 312.5 502 C 326.04 507.057 343.166 503.597 352.073 491.886 C 354.059 489.275 356.207 487.036 357.238 483.801 C 358.598 479.533 358.518 474.899 358 470.5 L 358 470.5 L 350.5 461 C 344.751 456.251 334.802 460.178 329.034 462.159 C 313.859 467.37 298.269 482.632 281.109 473.891 C 264.251 465.302 265.335 442.864 278.5 431 L 278.5 431 L 297 419.5 L 298 416.5 L 297.5 413 Z " fill="rgb(2,2,2)"/><path d=" M 1208.5 413 L 1217 413.5 L 1208.5 414 L 1208.5 413 Z  M 302.5 417 L 306.5 422 L 302.5 417 Z  M 419.5 420 L 422.5 421 L 424 420.5 L 419 424.5 L 421.5 421 C 420.797 421.117 418.584 421.374 419.5 420 L 419.5 420 Z  M 296.5 424 L 305 424.5 L 296.5 425 L 296.5 424 Z  M 415.5 427 L 411.5 432 L 415.5 427 Z  M 281.5 428 C 282.358 431.001 279.7 433.46 277.5 435 L 277.5 435 L 275 434.5 L 280 431.5 C 277.75 430.068 279.882 428.666 281.5 428 L 281.5 428 Z  M 268.5 449 L 269 457.5 L 268 457.5 L 268.5 449 Z " fill-rule="evenodd" fill="rgb(127,127,127)"/><path d=" M 541.5 472 L 745.5 472 L 797.5 472 C 802.539 470.442 811.404 467.94 815.5 473 L 815.5 473 L 817.5 473 Q 982.135 491.865 1064 593.5 Q 1138.243 669.757 1150 808.5 L 1149 810.5 C 1151.067 811.648 1150.485 814.658 1150 816.5 L 1150 816.5 L 1150 831.5 L 1149 833.5 L 1150 836.5 C 1144.94 892.922 1131.955 949.588 1104.782 999.688 C 1067.105 1069.156 991.646 1130.397 916.376 1155.251 C 874.689 1169.016 830.185 1172.847 786.5 1172 L 786.5 1172 L 552.5 1172 L 550.5 1171 L 548.5 1172 L 545.5 1171 L 543.5 1172 L 541.5 1172 L 540 1171.5 C 542.315 1170.827 544.599 1170.048 546.838 1169.15 C 585.529 1153.635 589.878 1105.626 587 1069.5 L 587 1069.5 L 587 963.5 L 587 539.5 C 585.113 517.912 577.777 496.103 560.5 482 L 560.5 482 L 547.5 475 C 545.892 474.94 540.727 474.833 541.5 472 L 541.5 472 Z " fill="rgb(2,2,2)"/><path d=" M 1301.5 479 L 1310 479.5 L 1301.5 480 L 1301.5 479 Z " fill="rgb(127,127,127)"/><path d=" M 1297.5 480 Q 1331.023 477.977 1343 497.5 Q 1354.919 509.081 1355 532.5 L 1344.5 539 L 1345 537.5 C 1346.14 534.928 1346.922 532.203 1347.438 529.438 C 1350.665 512.125 1344.531 491.532 1325.613 486.762 C 1317.263 484.656 1308.903 485.656 1300.881 488.444 C 1287.39 493.133 1273.917 503.269 1267.373 516.31 C 1263.464 524.101 1260.913 536.166 1263.91 544.59 C 1269.653 560.735 1283.809 568.247 1300.5 569 L 1300.5 569 L 1302.5 568 L 1297.5 574 C 1278.794 569.742 1262.96 556.139 1259.156 536.906 C 1253.877 510.214 1271.205 485.514 1297.5 480 L 1297.5 480 Z " fill="rgb(2,2,2)"/><path d=" M 655.5 483 L 751 483.5 L 655 484.5 L 655.5 1158 L 671 1158.5 L 654.5 1159 L 654 484.5 L 655.5 483 Z " fill="rgb(127,127,127)"/><path d=" M 655.5 484 Q 893.708 466.792 994 587.5 L 994.5 589 L 996 589.5 C 1049.677 647.931 1069.771 728.107 1074 805.5 L 1074 805.5 L 1073 807.5 C 1075.323 808.894 1074.575 812.39 1074 814.5 L 1074 814.5 L 1074 833.5 L 1073 838.5 L 1073 840.5 C 1067.98 924.329 1043.546 1010.879 979.5 1069 L 979.5 1069 L 976 1071.5 L 975.5 1073 Q 895.556 1152.556 742.5 1159 Q 741 1156.5 735.5 1158 L 733.5 1159 L 731.5 1158 L 729.5 1159 L 727.5 1159 L 698.5 1158 L 696.5 1158 L 680.5 1159 C 678.86 1156.423 674.88 1157.334 672.5 1158 L 672.5 1158 L 670.5 1158 L 655 1157.5 L 655.5 484 Z " fill="rgb(253,253,253)"/><line x1="1336.5" y1="490" x2="1341.5" y2="496"/><path d=" M 234.5 495 L 239.5 503 L 288 533.5 C 293.33 541.248 302.464 544.375 311.5 545 L 311.5 545 L 314.5 543 L 313 545.5 L 304.5 560 C 304.097 555.888 302.318 551.961 298.5 550 L 298.5 550 L 251 520.5 C 245.67 512.752 236.536 509.625 227.5 509 L 227.5 509 L 225.5 510 L 227 507.5 L 234.5 495 Z " fill="rgb(2,2,2)"/><path d=" M 1340.5 497 L 1346 500.5 L 1343 499.5 L 1344 501.5 L 1342 500.5 L 1340.5 497 Z  M 1283.5 498 L 1273.5 509 L 1283.5 498 Z  M 335.5 506 L 331.5 511 L 335.5 506 Z  M 953.5 509 L 960 512.5 L 958.5 512 C 956.994 511.859 952.781 511.481 953.5 509 L 953.5 509 Z  M 298.5 550 L 302.5 555 L 298.5 550 Z  M 1268.5 556 L 1274.5 563 L 1268.5 556 Z  M 224.5 557 L 234 557.5 L 224.5 558 L 224.5 557 Z " fill-rule="evenodd" fill="rgb(127,127,127)"/><path d=" M 220.5 558 C 228.695 557.486 237.111 557.81 245.033 560.154 C 264.778 565.996 279.822 590.447 275.334 610.897 C 271.968 626.238 266.607 641.08 257.5 654 L 257.5 654 L 251.5 646 L 201 623.5 C 193.636 617.925 184.568 615.144 175.5 614 L 175.5 614 L 172.5 616 L 172 614.5 C 179.292 589.804 193.391 563.685 220.5 558 L 220.5 558 Z " fill="rgb(2,2,2)"/><path d=" M 220.5 566 L 223.5 567 L 225.5 567 C 245.208 568.74 265.158 579.724 269.711 600.289 C 272.119 611.167 270.483 622.347 265.854 632.479 C 264.648 635.117 263.2 637.649 261.5 640 L 261.5 640 L 180 603.5 C 185.407 583.536 199.378 568.185 220.5 566 L 220.5 566 Z " fill="rgb(253,253,253)"/><path d=" M 1039.5 568 L 1059.5 589 L 1039.5 568 Z  M 976.5 569 L 991.5 585 L 976.5 569 Z  M 1351.5 579 L 1362 579.5 L 1351.5 580 L 1351.5 579 Z " fill-rule="evenodd" fill="rgb(127,127,127)"/><path d=" M 1348.5 580 Q 1382.893 578.107 1395 598.5 Q 1405.367 610.133 1404 633.5 Q 1399.802 654.302 1385.5 665 Q 1373.575 675.575 1349.5 674 Q 1331.871 670.629 1322 659.5 Q 1307.801 647.199 1310 618.5 Q 1313.887 600.887 1325.5 591 Q 1334.447 582.947 1348.5 580 Z " fill="rgb(2,2,2)"/><path d=" M 1364.5 588 C 1380.295 588.739 1396.422 595.936 1400.045 612.705 C 1400.666 615.579 1400.945 618.559 1401 621.5 L 1401 621.5 L 1400 624.5 C 1396.722 648.716 1375.65 663.279 1352.5 666 L 1352.5 666 L 1350.5 666 C 1335.256 665.816 1317.786 659.586 1313.915 643.148 C 1311.924 634.696 1313.164 627.276 1316.578 619.39 C 1317.73 616.728 1319.088 614.168 1320.678 611.74 C 1330.514 596.721 1346.916 589.048 1364.5 588 L 1364.5 588 Z " fill="rgb(253,253,253)"/><path d=" M 1387.5 590 L 1393.5 597 L 1387.5 590 Z  M 1395.5 602 L 1399 603.5 L 1397.5 607 L 1395.5 602 Z  M 1309.5 621 L 1310 632.5 L 1309 632.5 L 1309.5 621 Z  M 1393.5 657 L 1388.5 663 L 1393.5 657 Z  M 1112.5 665 L 1116 671.5 L 1115 671.5 L 1112.5 665 Z  M 1073.5 795 L 1074 803.5 L 1073 803.5 L 1073.5 795 Z  M 1149.5 798 L 1150 807.5 L 1149 807.5 L 1149.5 798 Z  M 1073.5 840 L 1074 849.5 L 1073 849.5 L 1073.5 840 Z " fill-rule="evenodd" fill="rgb(127,127,127)"/><path d=" M 1342.5 1035 Q 1355.75 1033.75 1360 1041.5 Q 1363.091 1046.409 1362.5 1055 Q 1377.083 1054.583 1387.5 1050 L 1387 1051.5 L 1385.5 1056 C 1376.628 1055.464 1366.753 1056.316 1359.5 1062 L 1359.5 1062 L 1359 1060.5 L 1361 1055.5 C 1360.508 1050.655 1358.641 1045.852 1354.5 1043 L 1354.5 1043 L 1343.5 1039 C 1338.383 1039.551 1333.504 1041.792 1331 1046.5 L 1331 1046.5 L 1329.5 1050 L 1329 1048.5 L 1336.5 1038 L 1342.5 1035 Z " fill="rgb(2,2,2)"/><path d=" M 1340.5 1040 C 1351.891 1039.633 1361.887 1046.103 1360 1058.5 L 1360 1058.5 L 1354.5 1070 L 1327 1057.5 C 1328.251 1052.135 1330.63 1046.984 1334.5 1043 L 1334.5 1043 L 1340.5 1040 Z " fill="rgb(253,253,253)"/><line x1="999.5" y1="1047" x2="995.5" y2="1052"/><path d=" M 1328.5 1051 L 1329 1052.5 C 1326.848 1053.659 1326.721 1056.36 1327 1058.5 L 1327 1058.5 L 1355.5 1070 L 1356.5 1068 L 1357 1069.5 L 1356.5 1071 C 1361.127 1076.432 1368.793 1077.38 1375.5 1077 L 1375.5 1077 L 1377 1076.5 L 1373.5 1085 C 1358.818 1075.361 1342.425 1068.563 1325.5 1064 L 1325.5 1064 L 1323.5 1065 L 1323 1063.5 L 1328.5 1051 Z " fill="rgb(2,2,2)"/><path d=" M 993.5 1054 L 989.5 1059 L 993.5 1054 Z  M 1061.5 1058 L 1055.5 1065 L 1061.5 1058 Z  M 974.5 1073 L 969.5 1079 L 974.5 1073 Z  M 1040.5 1079 L 1035.5 1085 L 1040.5 1079 Z " fill-rule="evenodd" fill="rgb(127,127,127)"/><path d=" M 264.5 1089 L 269 1096.5 C 262.753 1096.826 256.242 1098.643 252 1103.5 L 252 1103.5 L 221 1120.5 L 220.5 1122 L 217 1115.5 C 233.952 1109.933 250.096 1101.749 264 1090.5 L 264 1090.5 L 264.5 1089 Z  M 1319.5 1092 Q 1338.143 1089.857 1345 1099.5 Q 1353.263 1106.738 1353 1122.5 L 1352 1122.5 C 1350.417 1106.356 1337.104 1096.903 1321.5 1096 L 1321.5 1096 L 1318.5 1097 C 1312.197 1097.134 1305.707 1099.153 1302.5 1105 L 1302.5 1105 L 1304 1102.5 L 1307.5 1098 L 1319.5 1092 Z " fill-rule="evenodd" fill="rgb(2,2,2)"/><path d=" M 1316.5 1097 C 1320.71 1096.832 1324.959 1097.012 1329.101 1097.837 C 1343.819 1100.769 1352.927 1112.851 1351 1127.5 L 1351 1127.5 L 1345.5 1136 C 1332.902 1146.577 1311.484 1140.226 1303 1127.5 L 1303 1127.5 L 1299 1115.5 C 1299.558 1110.408 1301.423 1105.32 1305.5 1102 L 1305.5 1102 L 1316.5 1097 Z " fill="rgb(253,253,253)"/><path d=" M 1342.5 1104 L 1346.5 1109 L 1342.5 1104 Z  M 1300.5 1107 L 1302 1107.5 C 1299.8 1109.3 1299.373 1112.329 1299.5 1115 L 1299.5 1115 L 1298 1112.5 L 1300.5 1107 Z " fill-rule="evenodd" fill="rgb(127,127,127)"/><path d=" M 1298.5 1114 C 1298.79 1116.808 1299.325 1119.6 1300.219 1122.281 C 1305.539 1138.242 1326.883 1147.044 1341.938 1138.938 C 1344.573 1137.518 1346.841 1135.489 1348.5 1133 L 1348.5 1133 L 1347 1135.5 L 1343.5 1140 C 1341.26 1142.495 1338.292 1144.188 1335.105 1145.168 C 1321.639 1149.31 1305.299 1143.784 1299.598 1130.197 C 1297.461 1125.105 1297.588 1119.348 1298.5 1114 L 1298.5 1114 Z " fill="rgb(2,2,2)"/><path d=" M 1351.5 1119 L 1353 1125.5 L 1351.5 1129 L 1350 1128.5 C 1352.9 1126.407 1352.198 1121.963 1351.5 1119 L 1351.5 1119 Z  M 1304.5 1129 L 1309.5 1135 L 1304.5 1129 Z " fill-rule="evenodd" fill="rgb(127,127,127)"/><path d=" M 289.5 1131 L 294 1138.5 L 291.5 1139 C 278.412 1144.165 266.419 1151.99 257 1162.5 L 257 1162.5 L 254 1170.5 C 254.844 1176.278 257.441 1181.787 262.5 1185 L 262.5 1185 L 268 1186.5 L 264.5 1187 L 256 1180.5 C 248.402 1171.448 250.231 1158.211 260.5 1152 L 260.5 1152 L 288 1133.5 L 289.5 1131 Z  M 228.5 1135 C 230.753 1138.293 234.197 1140.435 238 1141.5 L 238 1141.5 L 232.5 1143 L 228.5 1135 Z " fill-rule="evenodd" fill="rgb(2,2,2)"/><path d=" M 1320.5 1146 L 1330 1146.5 L 1320.5 1147 L 1320.5 1146 Z  M 569.5 1152 L 562.5 1160 L 569.5 1152 Z  M 258.5 1153 L 254.5 1158 L 258.5 1153 Z  M 688.5 1158 L 697 1158.5 L 688.5 1159 L 688.5 1158 Z  M 698.5 1158 L 707 1158.5 L 698.5 1159 L 698.5 1158 Z  M 744.5 1158 L 756 1158.5 L 744.5 1159 L 744.5 1158 Z " fill-rule="evenodd" fill="rgb(127,127,127)"/><path d=" M 308.5 1160 L 312 1165.5 L 310.5 1165 L 306.5 1166 L 307 1164.5 L 308.5 1160 Z  M 1267.5 1160 L 1273.5 1167 L 1310.5 1192 L 1312 1191.5 L 1307.5 1198 L 1302.5 1192 C 1291.81 1180.174 1277.982 1171.747 1263 1166.5 L 1263 1166.5 L 1267.5 1160 Z  M 1320.5 1166 L 1321.5 1168 L 1323 1168.5 L 1325 1172.5 L 1319.5 1180 L 1320 1178.5 C 1322.061 1175.702 1321.622 1171.687 1321 1168.5 L 1321 1168.5 L 1320.5 1166 Z " fill-rule="evenodd" fill="rgb(2,2,2)"/><path d=" M 819.5 1171 L 829 1171.5 L 819.5 1172 L 819.5 1171 Z  M 261.5 1183 L 262.5 1186 L 264.5 1185 L 263.5 1187 L 261 1185.5 L 261.5 1183 Z " fill-rule="evenodd" fill="rgb(127,127,127)"/><path d=" M 324.5 1183 L 331 1190.5 L 327 1193.5 L 310.5 1250 L 304 1242.5 L 308 1239.5 L 324.5 1183 Z " fill="rgb(2,2,2)"/><path d=" M 326.5 1185 L 330.5 1190 L 326.5 1185 Z  M 1312.5 1189 L 1314 1189.5 L 1311 1191.5 C 1312.211 1192.173 1311.952 1194.447 1310.5 1194 C 1307.899 1193.2 1311.766 1189.459 1312.5 1189 L 1312.5 1189 Z " fill-rule="evenodd" fill="rgb(127,127,127)"/><path d=" M 1249.5 1194 C 1262.968 1193.169 1277.392 1198.215 1281.341 1212.409 C 1282.7 1217.294 1282.589 1222.509 1282 1227.5 L 1282 1227.5 L 1280.5 1231 L 1280 1227.5 L 1281 1225.5 C 1280.515 1222.475 1279.755 1219.485 1278.613 1216.637 C 1273.069 1202.81 1253.143 1190.852 1239.063 1199.813 C 1237.694 1200.683 1236.505 1201.744 1235.5 1203 L 1235.5 1203 L 1238.5 1199 L 1249.5 1194 Z " fill="rgb(2,2,2)"/><path d=" M 1236.5 1200 L 1235 1202.5 L 1230.5 1211 L 1229 1210.5 L 1236.5 1200 Z  M 344.5 1206 L 348.5 1211 C 347.671 1209.435 345.986 1206.955 344 1208.5 L 344 1208.5 L 344.5 1206 Z " fill-rule="evenodd" fill="rgb(127,127,127)"/><path d=" M 345.5 1208 L 349.5 1213 L 340 1212.5 L 344 1210.5 L 345.5 1208 Z  M 1229.5 1211 L 1230 1213.5 L 1229 1216.5 C 1231.041 1232.712 1243.152 1244.455 1259.711 1244.414 C 1266.867 1244.397 1273.652 1242.705 1277.5 1236 L 1277.5 1236 L 1270.5 1244 C 1264.267 1249.221 1255.067 1249.041 1247.5 1248 L 1247.5 1248 L 1234 1239.5 C 1227.141 1233.341 1226.963 1222.956 1228 1214.5 L 1228 1214.5 L 1229.5 1211 Z " fill-rule="evenodd" fill="rgb(2,2,2)"/><path d=" M 315.5 1213 L 316 1214.5 L 314.5 1218 L 311 1216.5 L 311.5 1215 L 315 1214.5 L 315.5 1213 Z  M 1227.5 1216 L 1228 1225.5 L 1227 1225.5 L 1227.5 1216 Z " fill-rule="evenodd" fill="rgb(127,127,127)"/><path d=" M 283.5 1218 L 287.5 1219 L 289.5 1218 C 291.697 1219.183 290.958 1220.586 289 1221.5 L 289 1221.5 L 288.5 1225 L 283.5 1218 Z  M 364.5 1228 L 370.5 1235 C 365.924 1234.714 362.344 1236.685 362 1241.5 L 362 1241.5 L 343 1260.5 C 334.445 1266.845 338.738 1282.198 347.5 1286 L 347.5 1286 L 358 1287.5 L 349.5 1288 Q 342 1285 338 1278.5 Q 333.833 1274.667 335 1265.5 Q 340.667 1251.167 353 1243.5 Q 361.75 1238.75 364.5 1228 Z " fill-rule="evenodd" fill="rgb(2,2,2)"/><path d=" M 361.5 1234 L 346.5 1250 L 361.5 1234 Z  M 1277.5 1237 L 1271.5 1244 Q 1269.6 1242 1272.5 1240 Q 1275 1243.5 1277.5 1237 Z " fill-rule="evenodd" fill="rgb(127,127,127)"/><path d=" M 1204.5 1240 C 1208.027 1239.608 1211.445 1240.613 1212 1244.5 L 1212 1244.5 L 1208.5 1245 L 1204.5 1244 C 1197.761 1244.433 1191.048 1246.91 1187.5 1253 L 1187.5 1253 L 1193.5 1246 L 1204.5 1240 Z " fill="rgb(2,2,2)"/><path d=" M 303.5 1241 L 306 1241.5 L 304 1242.5 L 306.5 1246 C 304.035 1245.305 302.131 1243.648 303.5 1241 L 303.5 1241 Z  M 311.5 1246 L 312 1250.5 L 310.5 1251 L 307.5 1247 L 311 1249.5 L 311.5 1246 Z  M 1191.5 1247 L 1194 1247.5 L 1188 1250.5 L 1191.5 1247 Z  M 1249.5 1248 L 1261 1248.5 L 1249.5 1249 L 1249.5 1248 Z  M 352.5 1251 L 343.5 1261 L 352.5 1251 Z  M 388.5 1251 L 395.5 1259 L 393 1258.5 C 396.354 1256.041 391.768 1253.86 389.5 1253 L 389.5 1253 L 388 1252.5 L 388.5 1251 Z " fill-rule="evenodd" fill="rgb(127,127,127)"/><path d=" M 389.5 1253 L 393.5 1258 L 388.5 1259 L 389 1257.5 L 390 1255.5 L 389.5 1253 Z " fill="rgb(2,2,2)"/><path d=" M 1186.5 1253 L 1188 1253.5 L 1186 1254.5 L 1186.5 1256 L 1185 1256.5 L 1186 1258.5 L 1184 1257.5 L 1186.5 1253 Z " fill="rgb(127,127,127)"/><path d=" M 1184.5 1258 L 1185 1261.5 L 1184 1264.5 C 1186.176 1277.564 1195.73 1289.347 1209.129 1291.996 C 1215.281 1293.213 1223.527 1294.243 1227.5 1288 L 1227.5 1288 L 1224.5 1292 C 1218.171 1296.984 1208.436 1297.26 1201.016 1294.859 C 1187.521 1290.493 1181.272 1278.126 1182 1264.5 L 1182 1264.5 L 1184.5 1258 Z " fill="rgb(2,2,2)"/><path d=" M 387.5 1259 L 389 1259.5 L 375.5 1272 L 387.5 1259 Z " fill="rgb(127,127,127)"/><path d=" M 383.5 1264 L 363.5 1285 L 383.5 1264 Z  M 1234.5 1267 L 1237 1268.5 C 1237.391 1272.825 1237.032 1277.954 1233.5 1281 L 1233.5 1281 L 1233 1279.5 L 1235 1271.5 L 1234.5 1267 Z  M 411.5 1273 L 417 1277.5 L 394 1305.5 C 387.827 1308.357 385.038 1314.496 384.5 1321 L 384.5 1321 L 378 1315.5 L 383 1312.5 L 401.5 1289 C 407.969 1286.113 410.929 1279.774 411.5 1273 L 411.5 1273 Z " fill-rule="evenodd" fill="rgb(2,2,2)"/><path d=" M 336.5 1276 L 345 1285.5 L 337 1278.5 L 336.5 1276 Z  M 1233.5 1277 L 1235 1280.5 L 1232.5 1284 L 1231 1283.5 L 1233 1282.5 L 1232.5 1281 L 1234 1280.5 L 1233.5 1277 Z  M 1191.5 1280 L 1195.5 1285 L 1191.5 1280 Z " fill-rule="evenodd" fill="rgb(127,127,127)"/><path d=" M 423.5 1282 C 431.96 1285.808 434.276 1294.943 434 1303.5 L 434 1303.5 L 426.5 1313 C 423.45 1315.392 419.164 1315.427 415.5 1315 L 415.5 1315 L 409.5 1313 L 407 1336.5 L 408 1338.5 L 404.5 1336 L 403 1335.5 Q 402.437 1320.437 405.5 1309 Q 409 1313.5 418.5 1312 L 427 1305.5 C 433.706 1298.762 431.068 1286.928 423.5 1282 L 423.5 1282 Z " fill="rgb(2,2,2)"/><path d=" M 345.5 1283 L 351 1286.5 L 348.5 1288 L 348.5 1286 L 346.5 1287 L 345.5 1283 Z  M 426.5 1284 C 428.965 1285.027 431.717 1286.99 428.5 1289 L 428.5 1289 L 426.5 1284 Z  M 1231.5 1285 L 1226.5 1291 L 1224.5 1291 L 1223 1290.5 L 1225.5 1289 C 1226.383 1290.589 1227.385 1289.853 1228 1288.5 L 1228 1288.5 L 1229.5 1286 L 1231.5 1285 Z  M 1188.5 1286 L 1192.5 1291 L 1188.5 1286 Z  M 399.5 1299 L 398 1301.5 L 400 1305.5 L 397.5 1304 L 394.5 1306 L 397 1302.5 L 399.5 1299 Z " fill-rule="evenodd" fill="rgb(127,127,127)"/><path d=" M 452.5 1304 L 461 1309.5 Q 452.185 1318.685 455 1339.5 Q 457.5 1341 454 1342.5 Q 445.591 1349.591 443.5 1363 L 437 1358.5 C 454.163 1347.085 455.23 1324.033 453 1305.5 L 453 1305.5 L 452.5 1304 Z " fill="rgb(2,2,2)"/><path d=" M 426.5 1305 L 422.5 1310 L 426.5 1305 Z  M 403.5 1307 C 406.472 1308.6 405.682 1312.87 405 1315.5 L 405 1315.5 L 404 1315.5 L 403.5 1307 Z  M 431.5 1308 L 427.5 1313 L 431.5 1308 Z " fill-rule="evenodd" fill="rgb(127,127,127)"/><path d=" M 1115.5 1310 C 1118.712 1309.715 1122.473 1310.247 1124 1313.5 L 1124 1313.5 L 1125 1317.5 L 1122 1315.5 L 1121.5 1314 C 1119.164 1313.654 1115.892 1312.79 1115.5 1310 L 1115.5 1310 Z  M 1110.5 1312 L 1107 1316.5 L 1106 1321.5 L 1110.5 1328 C 1121.866 1333.944 1134.788 1336.36 1147.5 1337 L 1147.5 1337 L 1148 1332.5 L 1143.5 1325 L 1140 1323.5 L 1147.5 1319 L 1147 1320.5 C 1146.07 1325.912 1145.675 1333.168 1150.5 1337 L 1150.5 1337 L 1170 1338.5 C 1166.788 1342.997 1160.354 1342.79 1155.5 1342 L 1155.5 1342 L 1150.5 1341 C 1148.372 1355.154 1132.9 1369.856 1118.469 1359.781 C 1117.144 1358.857 1115.988 1357.763 1115 1356.5 L 1115 1356.5 L 1111 1345.5 L 1114 1334.5 L 1107 1329.5 C 1104.28 1326.637 1104.45 1322.117 1105 1318.5 L 1105 1318.5 L 1110.5 1312 Z  M 479.5 1322 L 485 1325.5 L 478.5 1328 L 479 1326.5 L 479.5 1322 Z " fill-rule="evenodd" fill="rgb(2,2,2)"/><path d=" M 478.5 1326 L 481 1327.5 L 479.5 1328 L 478 1327.5 L 476.5 1330 L 475.5 1328 L 477 1328.5 L 478.5 1326 Z  M 455.5 1335 L 457 1340.5 L 454 1342.5 C 455.487 1341.863 456.933 1340.66 455 1339.5 L 455 1339.5 L 455.5 1335 Z  M 463.5 1335 L 464 1336.5 L 460.5 1339 L 459 1338.5 L 458.5 1340 L 458 1338.5 L 461 1337.5 L 461.5 1336 L 463 1336.5 L 463.5 1335 Z " fill-rule="evenodd" fill="rgb(127,127,127)"/><path d=" M 1116.5 1335 Q 1129.531 1340.969 1148 1341.5 Q 1146.981 1352.481 1139.5 1357 L 1129.5 1359 C 1118.322 1356.122 1113.473 1347.531 1115 1336.5 L 1115 1336.5 L 1116.5 1335 Z " fill="rgb(253,253,253)"/><path d=" M 529.5 1349 L 536 1352.5 L 526 1376.5 L 526.5 1378 L 524 1379.5 C 518.972 1385.806 516.253 1393.608 515 1401.5 L 515 1401.5 L 518 1403.5 L 516.5 1404 L 508 1399.5 C 519.869 1385.644 526.656 1368.277 530 1350.5 L 530 1350.5 L 529.5 1349 Z  M 1050.5 1349 L 1052 1349.5 L 1055 1356.5 L 1053.5 1356 L 1044 1352.5 L 1050 1350.5 L 1050.5 1349 Z " fill-rule="evenodd" fill="rgb(2,2,2)"/><path d=" M 1040.5 1351 L 1048 1351.5 L 1043.5 1353 C 1042.466 1352.931 1039.777 1352.688 1040.5 1351 L 1040.5 1351 Z  M 1144.5 1352 Q 1147.5 1353.5 1144.5 1355 Q 1143.25 1352.75 1142 1355.5 Q 1144.75 1357.25 1140.5 1359 Q 1138.3 1355.5 1144.5 1352 Z " fill-rule="evenodd" fill="rgb(127,127,127)"/><path d=" M 537.5 1353 L 547 1357.5 L 545.5 1358 C 543.132 1357.636 536.817 1356.758 537.5 1353 L 537.5 1353 Z " fill="rgb(2,2,2)"/><path d=" M 1032.5 1354 L 1033 1355.5 Q 1030 1363 1027 1358.5 Q 1029.5 1353.667 1032 1355.5 L 1032.5 1354 Z " fill="rgb(127,127,127)"/><path d=" M 1031.5 1355 L 1028 1359.5 L 1027 1367.5 L 1030.5 1372 C 1041.472 1380.034 1059.781 1368.926 1068.885 1381.365 C 1076.045 1391.147 1065.588 1405.853 1054.5 1405 L 1054.5 1405 L 1054.5 1404 C 1059.109 1404.299 1064.133 1403.217 1066 1398.5 L 1066 1398.5 L 1069 1391.5 L 1064.5 1384 C 1059.344 1380.424 1052.492 1380.34 1046.5 1381 L 1046.5 1381 L 1043.5 1382 C 1040.252 1381.902 1036.965 1381.42 1033.939 1380.186 C 1023.858 1376.073 1020.002 1360.328 1031.5 1355 L 1031.5 1355 Z  M 550.5 1359 L 559 1363.5 L 557.5 1371 C 557.299 1367.111 555.965 1363.147 552.5 1361 L 552.5 1361 L 550.5 1359 Z  M 1001.5 1369 L 1003 1369.5 L 1000 1373.5 L 1004 1385.5 L 1003 1385.5 C 1002.267 1380.954 1000.606 1376.471 997.5 1373 L 997.5 1373 L 995 1371.5 L 1001.5 1369 Z  M 577.5 1371 L 589 1374.5 L 586 1376.5 C 585.694 1384.541 586.663 1393.288 591.5 1400 L 591.5 1400 L 608 1386.5 L 609 1384.5 L 607 1381.5 L 608.5 1381 L 615 1383.5 L 591 1401.5 C 592.223 1413.294 595.14 1425.109 601 1435.5 L 601 1435.5 L 599.5 1436 L 590 1432.5 C 593.087 1431.177 592.609 1427.141 592 1424.5 L 592 1424.5 L 586.5 1405 L 568 1419.5 L 569 1424.5 L 566.5 1425 L 561 1422.5 L 561.5 1421 Q 577.05 1415.55 586 1403.5 Q 583.765 1382.902 577.5 1371 Z " fill-rule="evenodd" fill="rgb(2,2,2)"/><path d=" M 1026.5 1374 L 1030.5 1379 L 1026.5 1374 Z  M 1038.5 1374 L 1047 1374.5 L 1038.5 1375 L 1038.5 1374 Z " fill-rule="evenodd" fill="rgb(127,127,127)"/><path d=" M 530.5 1379 L 537.5 1382 L 541.5 1380 L 542 1381.5 L 538.5 1387 L 535.5 1382 C 533.994 1381.859 529.781 1381.481 530.5 1379 L 530.5 1379 Z  M 966.5 1381 C 982.787 1389.283 998.033 1399.634 1011.5 1412 L 1011.5 1412 L 1012.5 1410 L 1016 1420.5 L 1014.5 1420 L 967.5 1387 L 966.5 1389 L 963.5 1385 L 960 1383.5 L 966.5 1381 Z " fill-rule="evenodd" fill="rgb(2,2,2)"/><path d=" M 968.5 1387 L 974 1391.5 L 971.5 1390 L 968.5 1387 Z " fill="rgb(127,127,127)"/><path d=" M 634.5 1389 L 661 1395.5 L 657.5 1396 C 656.617 1394.411 655.615 1395.147 655 1396.5 L 655 1396.5 L 648 1428.5 C 644.991 1433.917 644.596 1440.446 645 1446.5 L 645 1446.5 L 645.5 1448 L 636 1445.5 C 641.56 1442.233 642.458 1435.38 642 1429.5 L 642 1429.5 L 651 1394.5 C 647.434 1391.953 642.72 1391.675 638.5 1392 L 638.5 1392 L 631.5 1396 L 632 1394.5 L 634.5 1389 Z " fill="rgb(2,2,2)"/><path d=" M 644.5 1391 L 646 1391.5 C 644.207 1393.619 640.958 1393.424 638.5 1393 L 638.5 1393 L 638.5 1392 C 640.342 1392.485 643.352 1393.067 644.5 1391 L 644.5 1391 Z " fill="rgb(127,127,127)"/><path d=" M 919.5 1393 C 933.02 1392.115 947.383 1397.18 951.341 1411.409 C 954.303 1422.059 951.565 1433.309 943.5 1441 L 943.5 1441 L 937.5 1445 L 938.5 1443 L 942 1440.5 C 953.533 1428.859 946.166 1406.49 934.5 1398 L 934.5 1398 L 924.5 1394 C 923.621 1394.183 918.469 1395.32 919.5 1393 L 919.5 1393 Z  M 915.5 1394 L 918 1394.5 C 904.767 1397.147 900.914 1411.716 903 1423.5 C 905.242 1436.168 916.378 1446.44 929 1447.5 L 929 1447.5 L 920.5 1448 C 917.324 1447.412 914.194 1446.437 911.336 1444.914 C 893.414 1435.362 892.581 1408.07 909.5 1397 L 909.5 1397 L 915.5 1394 Z " fill-rule="evenodd" fill="rgb(2,2,2)"/><path d=" M 920.5 1394 C 936.277 1395.65 946.342 1407.801 947 1423.5 L 947 1423.5 L 947 1425.5 C 946.67 1428.863 945.946 1432.218 944.566 1435.316 C 938.979 1447.868 924.321 1449.43 914.164 1440.961 C 901.809 1430.659 897.218 1407.11 912.5 1397 L 912.5 1397 L 920.5 1394 Z " fill="rgb(253,253,253)"/><path d=" M 662.5 1396 L 673 1398.5 L 672.5 1406 L 666.5 1398 C 665.387 1398.012 661.696 1398.061 662.5 1396 L 662.5 1396 Z " fill="rgb(2,2,2)"/><path d=" M 910.5 1396 Q 915 1399 907.5 1402 Q 912.333 1399 910.5 1396 Z  M 590.5 1397 L 592.5 1400 L 594 1399.5 L 591 1401.5 C 592.933 1400.34 591.487 1399.137 590 1398.5 L 590 1398.5 L 590.5 1397 Z  M 907.5 1398 L 903.5 1403 L 907.5 1398 Z  M 934.5 1398 L 940.5 1405 L 934.5 1398 Z " fill-rule="evenodd" fill="rgb(127,127,127)"/><path d=" M 1036.5 1398 Q 1042.25 1404.25 1053 1405.5 Q 1046.22 1405.22 1043 1408.5 L 1042.5 1410 L 1036.5 1398 Z  M 1008.5 1399 L 1012 1408.5 L 1011 1408.5 L 1008.5 1399 Z  M 694.5 1402 L 701 1402.5 C 698.361 1410.867 697.722 1419.774 698 1428.5 L 698 1428.5 L 703 1429.5 L 697 1430.5 L 694 1455.5 L 698 1456.5 L 693.5 1457 L 686 1455.5 Q 691.745 1450.745 691 1439.5 Q 695.581 1424.081 695 1403.5 L 694.5 1402 Z  M 868.5 1403 L 873 1403.5 L 872 1411.5 C 871.713 1426.808 873.575 1442.856 881 1456.5 L 881 1456.5 L 871.5 1458 L 873 1455.5 L 869 1424.5 C 869.715 1417.696 869.371 1409.509 864 1404.5 L 864 1404.5 L 868.5 1403 Z  M 521.5 1405 C 524.956 1408.896 530.637 1409.383 535.5 1409 L 535.5 1409 L 541.5 1406 L 540 1408.5 L 536.5 1413 L 526.5 1408 C 524.994 1407.859 520.781 1407.481 521.5 1405 L 521.5 1405 Z  M 717.5 1405 C 719 1404.804 725.357 1404.276 726 1406.5 C 726.555 1408.421 724.385 1411.047 727 1412.5 L 727 1412.5 L 724 1410.5 L 723.5 1409 C 721.602 1408.692 716.83 1407.932 717.5 1405 L 717.5 1405 Z  M 822.5 1406 L 831 1406.5 L 822.5 1407 L 822.5 1406 Z " fill-rule="evenodd" fill="rgb(2,2,2)"/><path d=" M 744.5 1407 L 752 1407.5 L 745.5 1409 L 744.5 1407 Z " fill="rgb(127,127,127)"/><path d=" M 819.5 1407 L 821 1407.5 L 815 1411.5 L 814 1420.5 C 822.262 1431.741 838.122 1429.87 846 1441.5 L 846 1441.5 L 847 1451.5 L 841.5 1459 C 837.013 1462.394 830.856 1462.552 825.5 1462 L 825.5 1462 L 825.5 1461 C 834.194 1462.013 845.275 1459.336 844 1448.5 L 844 1448.5 L 840.5 1443 C 830.374 1440.345 820.694 1435.68 813 1428.5 L 813 1428.5 L 810 1419.5 C 810.532 1415.463 812.163 1411.507 815.5 1409 L 815.5 1409 L 819.5 1407 Z  M 832.5 1407 L 840.5 1409 L 843 1407.5 L 842.5 1416 L 837.5 1410 C 835.994 1409.859 831.781 1409.481 832.5 1407 L 832.5 1407 Z " fill-rule="evenodd" fill="rgb(2,2,2)"/><path d=" M 726.5 1408 L 727 1411.5 L 727 1413.5 L 726.5 1415 L 724 1411.5 L 726 1411.5 L 726.5 1408 Z " fill="rgb(127,127,127)"/><path d=" M 746.5 1408 C 749.692 1407.279 754.474 1406.793 756 1410.5 L 756 1410.5 L 783.5 1452 L 784.5 1435 L 785 1452.5 C 781.841 1454.835 782.706 1459.764 783.5 1463 L 783.5 1463 L 750.5 1413 L 749.5 1422 C 750.194 1417.771 750.506 1412.488 747.5 1409 L 747.5 1409 L 746.5 1408 Z  M 781.5 1409 L 791 1409.5 L 786 1413.5 L 785.5 1421 C 785.963 1417.224 785.83 1412.528 782.5 1410 L 782.5 1410 L 781.5 1409 Z " fill-rule="evenodd" fill="rgb(2,2,2)"/><path d=" M 784.5 1421 L 786 1421.5 L 785.5 1435 L 784 1434.5 L 785 1430.5 C 781.956 1428.377 783.42 1423.768 784.5 1421 L 784.5 1421 Z  M 749.5 1422 L 750 1425.5 L 750 1427.5 L 749.5 1437 C 745.765 1434.665 747.052 1428.913 748 1425.5 L 748 1425.5 L 749.5 1422 Z  M 714.5 1426 L 715 1428.5 L 714.5 1431 L 713.5 1428 L 710.5 1430 L 710.5 1429 L 714.5 1426 Z " fill-rule="evenodd" fill="rgb(127,127,127)"/><path d=" M 714.5 1427 L 714 1428.5 L 713.5 1435 Q 711.107 1430.893 705 1430.5 Q 712.536 1431.536 714.5 1427 Z  M 980.5 1428 L 986 1432.5 L 978.5 1435 L 980 1432.5 L 980.5 1428 Z " fill-rule="evenodd" fill="rgb(2,2,2)"/><line x1="840.5" y1="1435" x2="845.5" y2="1441"/><path d=" M 748.5 1440 L 749 1449.5 L 748 1449.5 L 748.5 1440 Z  M 811.5 1448 C 813.059 1452.677 816.129 1456.647 820.5 1459 L 820.5 1459 L 824 1460.5 L 821.5 1461 C 819.86 1458.423 815.88 1459.334 813.5 1460 L 813.5 1460 L 812 1460.5 C 810.123 1456.625 810.519 1452.057 811.5 1448 L 811.5 1448 Z " fill-rule="evenodd" fill="rgb(2,2,2)"/><path d=" M 722.5 1451 L 721.5 1455 L 719 1454.5 L 722.5 1451 Z " fill="rgb(127,127,127)"/><path d=" M 721.5 1453 L 721 1454.5 L 718.5 1460 L 708 1458.5 C 712.942 1458.206 718.06 1456.769 721.5 1453 L 721.5 1453 Z " fill="rgb(2,2,2)"/><path d=" M 784.5 1453 L 785 1461.5 L 784 1461.5 L 784.5 1453 Z  M 705.5 1457 L 713 1457.5 L 705.5 1459 L 705.5 1457 Z " fill-rule="evenodd" fill="rgb(127,127,127)"/><path d=" M 747.5 1457 L 749 1457.5 L 750.5 1461 L 753 1462.5 L 751.5 1462 L 744 1461.5 L 747.5 1457 Z " fill="rgb(2,2,2)"/><path d=" M 742.5 1461 L 752 1462.5 L 743.5 1463 L 742.5 1461 Z " fill="rgb(127,127,127)"/></g></g></svg>